<svg xmlns="http://www.w3.org/2000/svg" viewBox="0 0 100 100" fill="none">
  <ellipse cx="50" cy="80" rx="32" ry="5" fill="#F8C4DC" opacity="0.5"/>
  <path d="M50 72 C50 72 20 55 20 38 C20 28 28 22 36 22 C42 22 47 26 50 32 C53 26 58 22 64 22 C72 22 80 28 80 38 C80 55 50 72 50 72Z" fill="#E4007C"/>
  <path d="M50 38 L50 58 M40 48 L60 48" stroke="white" stroke-width="4" stroke-linecap="round"/>
  <rect x="62" y="48" width="20" height="6" rx="3" fill="#F48FB1" transform="rotate(-30 72 51)"/>
  <circle cx="78" cy="38" r="8" fill="#F06292" stroke="#E4007C" stroke-width="2"/>
</svg>
